<svg width="300" height="300" viewBox="0 0 300 300" fill="none" xmlns="http://www.w3.org/2000/svg">
<path d="M185 75.8234C212.781 88.9547 232 117.233 232 150C232 195.287 195.287 232 150 232C104.713 232 68 195.287 68 150C68 104.713 104.713 68 150 68V11" stroke="white" stroke-width="7" stroke-linecap="round"/>
<mask id="mask0_13_18" style="mask-type:alpha" maskUnits="userSpaceOnUse" x="64" y="64" width="172" height="172">
<path d="M150 232C195.287 232 232 195.287 232 150C232 117.233 212.781 88.9547 185 75.8234C171.381 69.1951 163.704 68.569 150 68C104.713 68 68 104.713 68 150C68 195.287 104.713 232 150 232Z" fill="#D9D9D9" stroke="#7569FF" stroke-width="7" stroke-linecap="round"/>
</mask>
<g mask="url(#mask0_13_18)">
<path opacity="0.92" d="M107.898 110.334L104.127 117.426L109.707 123.205L101.796 121.81L98.0253 128.902L96.9074 120.948L88.997 119.553L96.2165 116.032L95.0986 108.077L100.678 113.855L107.898 110.334Z" fill="white"/>
<path opacity="0.88" d="M140.876 98.1057L142.378 103.016L147.511 103.105L143.305 106.05L144.806 110.96L140.706 107.87L136.5 110.815L138.172 105.96L134.072 102.871L139.205 102.96L140.876 98.1057Z" fill="white"/>
<path opacity="0.79" d="M143.292 94.1576L145.211 88.2509L140.187 84.6004L146.397 84.6004L148.316 78.6937L150.236 84.6004L156.446 84.6004L151.422 88.2509L153.341 94.1576L148.316 90.5071L143.292 94.1576Z" fill="white"/>
<path opacity="0.94" d="M192.812 89.3822L188.44 84.8551L182.783 87.614L185.738 82.0572L181.366 77.53L187.564 78.6229L190.519 73.0661L191.394 79.2983L197.592 80.3911L191.936 83.15L192.812 89.3822Z" fill="white"/>
<path opacity="0.86" d="M89.309 109.312L91.6529 99.9112L83.4365 94.777L93.1015 94.1011L95.4454 84.7003L99.0748 93.6834L108.74 93.0076L101.318 99.2353L104.947 108.218L96.7309 103.084L89.309 109.312Z" fill="white"/>
<path opacity="0.81" d="M143.77 118.565L150.478 124.605L158.295 120.092L154.624 128.338L161.331 134.377L152.355 133.434L148.683 141.679L146.807 132.851L137.83 131.907L145.647 127.394L143.77 118.565Z" fill="white"/>
<path opacity="0.85" d="M155.788 127.456L160.163 130.298L164.217 127.015L162.867 132.054L167.242 134.895L162.033 135.168L160.682 140.207L158.813 135.337L153.603 135.61L157.657 132.327L155.788 127.456Z" fill="white"/>
<path opacity="0.71" d="M176.258 120.537L182.717 116.343L180.724 108.904L186.709 113.75L193.167 109.556L190.407 116.746L196.392 121.592L188.702 121.189L185.942 128.379L183.949 120.94L176.258 120.537Z" fill="white"/>
<path opacity="0.89" d="M190.566 119.882L184.262 122.822L185.11 129.726L180.366 124.639L174.062 127.579L177.434 121.495L172.69 116.408L179.518 117.735L182.89 111.651L183.738 118.555L190.566 119.882Z" fill="white"/>
<path opacity="0.71" d="M88.463 136.219L87.4785 130.003L81.2625 129.019L86.87 126.161L85.8855 119.945L90.3357 124.396L95.9432 121.538L93.086 127.146L97.5361 131.596L91.3202 130.612L88.463 136.219Z" fill="white"/>
<path opacity="0.97" d="M123.029 133.476L131.585 129.486L130.435 120.116L136.873 127.021L145.428 123.031L140.852 131.288L147.29 138.192L138.023 136.39L133.447 144.647L132.296 135.277L123.029 133.476Z" fill="white"/>
<path opacity="0.99" d="M152.842 140.858L145.597 138.504L141.119 144.668L141.119 137.049L133.873 134.695L141.119 132.341L141.119 124.722L145.597 130.886L152.842 128.532L148.364 134.695L152.842 140.858Z" fill="white"/>
<path opacity="0.8" d="M172.684 141.466L176.665 137.485L174.109 132.467L179.126 135.024L183.108 131.042L182.227 136.604L187.244 139.16L181.683 140.041L180.802 145.603L178.245 140.585L172.684 141.466Z" fill="white"/>
<path opacity="0.9" d="M210.426 154.742L212.369 162.536L220.382 163.096L213.57 167.353L215.513 175.146L209.36 169.983L202.548 174.24L205.557 166.792L199.404 161.629L207.417 162.189L210.426 154.742Z" fill="white"/>
<path opacity="0.75" d="M97.5708 168.701L93.106 162.324L85.6622 164.6L90.3467 158.384L85.882 152.007L93.2419 154.542L97.9264 148.325L97.7906 156.108L105.151 158.642L97.7066 160.918L97.5708 168.701Z" fill="white"/>
<path opacity="0.9" d="M120.786 167.541L118.703 159.185L110.112 158.584L117.415 154.02L115.332 145.664L121.929 151.2L129.233 146.636L126.006 154.621L132.604 160.157L124.013 159.556L120.786 167.541Z" fill="white"/>
<path opacity="0.86" d="M145.561 181.96L138.932 176.592L131.779 181.238L134.836 173.275L128.207 167.907L136.725 168.354L139.781 160.391L141.989 168.63L150.507 169.076L143.353 173.721L145.561 181.96Z" fill="white"/>
<path opacity="0.87" d="M176.333 161.461L181.797 169.562L191.19 166.869L185.174 174.569L190.638 182.67L181.456 179.328L175.44 187.028L175.781 177.262L166.599 173.92L175.992 171.227L176.333 161.461Z" fill="white"/>
<path opacity="0.98" d="M196.327 161.373L198.654 167.131L204.849 166.698L200.092 170.69L202.418 176.449L197.151 173.157L192.394 177.149L193.896 171.123L188.629 167.832L194.825 167.399L196.327 161.373Z" fill="white"/>
<path opacity="0.96" d="M101.749 189.501L109.141 187.658L109.673 180.058L113.71 186.519L121.102 184.676L116.205 190.512L120.242 196.973L113.179 194.119L108.281 199.955L108.813 192.355L101.749 189.501Z" fill="white"/>
<path opacity="0.73" d="M127.556 203.472L120.647 205.829V213.458L116.376 207.286L109.466 209.643L113.737 203.472L109.466 197.3L116.376 199.657L120.647 193.486V201.114L127.556 203.472Z" fill="white"/>
<path opacity="0.97" d="M161.822 191.19L166.65 194.828L171.602 191.36L169.634 197.076L174.461 200.714L168.417 200.609L166.449 206.324L164.682 200.543L158.638 200.438L163.59 196.971L161.822 191.19Z" fill="white"/>
<path opacity="0.92" d="M188.838 204.531L190.818 213.846L200.288 214.841L192.041 219.602L194.021 228.917L186.944 222.545L178.697 227.307L182.571 218.607L175.494 212.235L184.964 213.23L188.838 204.531Z" fill="white"/>
<path opacity="0.76" d="M207.587 197.123L211.09 204.99L219.654 204.09L213.254 209.852L216.757 217.72L209.299 213.414L202.899 219.177L204.69 210.753L197.231 206.447L205.796 205.546L207.587 197.123Z" fill="white"/>
</g>
</svg>
