<svg width="220" height="220" viewBox="0 0 220 220" fill="none" xmlns="http://www.w3.org/2000/svg">
<path d="M146.084 194.361C179.421 161.025 243.333 43.0633 209.996 9.72662C176.659 -23.61 58.698 40.302 25.3614 73.6386C-6.63089 105.631 -7.92108 156.699 21.4908 190.23L50.2011 161.52L50.2011 94.9859L54.1299 94.9859L54.1299 157.591L100.107 111.614L100.107 59.8361L105.364 59.8361L105.364 106.357L110.621 101.1L146.084 65.6365L150.792 70.3444L75.9363 145.2L130.706 145.2L130.706 150.221L70.9149 150.221L26.0722 195.064C59.462 227.696 112.983 227.462 146.084 194.361Z" fill="white"/>
</svg>
