<svg width="300" height="300" viewBox="0 0 300 300" fill="none" xmlns="http://www.w3.org/2000/svg">
<rect width="32.5782" height="32.5782" transform="matrix(1 0 0.707107 0.707107 34.0002 154.663)" stroke="white" stroke-width="3"/>
<rect width="32.5782" height="32.5782" transform="matrix(1 0 0.707107 0.707107 66.5784 154.663)" stroke="white" stroke-width="3"/>
<rect width="32.5782" height="32.5782" transform="matrix(1 0 0.707107 0.707107 99.1565 154.663)" stroke="white" stroke-width="3"/>
<rect width="32.5782" height="32.5782" transform="matrix(1 0 0.707107 0.707107 131.735 154.663)" stroke="white" stroke-width="3"/>
<rect width="32.5782" height="32.5782" transform="matrix(1 0 0.707107 0.707107 164.313 154.663)" stroke="white" stroke-width="3"/>
<rect width="32.5782" height="32.5782" transform="matrix(1 0 0.707107 0.707107 57.0361 177.699)" stroke="white" stroke-width="3"/>
<rect width="32.5782" height="32.5782" transform="matrix(1 0 0.707107 0.707107 89.6145 177.699)" stroke="white" stroke-width="3"/>
<rect width="32.5782" height="32.5782" transform="matrix(1 0 0.707107 0.707107 122.193 177.699)" stroke="white" stroke-width="3"/>
<rect width="32.5782" height="32.5782" transform="matrix(1 0 0.707107 0.707107 154.771 177.699)" stroke="white" stroke-width="3"/>
<rect width="32.5782" height="32.5782" transform="matrix(1 0 0.707107 0.707107 187.349 177.699)" stroke="white" stroke-width="3"/>
<rect width="32.5782" height="32.5782" transform="matrix(1 0 0.707107 0.707107 80.0728 200.735)" stroke="white" stroke-width="3"/>
<rect width="32.5782" height="32.5782" transform="matrix(1 0 0.707107 0.707107 112.651 200.735)" stroke="white" stroke-width="3"/>
<rect width="32.5782" height="32.5782" transform="matrix(1 0 0.707107 0.707107 145.229 200.735)" stroke="white" stroke-width="3"/>
<rect width="32.5782" height="32.5782" transform="matrix(1 0 0.707107 0.707107 177.807 200.735)" stroke="white" stroke-width="3"/>
<rect width="32.5782" height="32.5782" transform="matrix(1 0 0.707107 0.707107 210.385 200.735)" stroke="white" stroke-width="3"/>
<path d="M149.337 128.364L193.452 159.912H154.474H144.2H105.222L149.337 128.364Z" fill="white"/>
<path d="M151.477 107.762L184.1 136.09H118.854L151.477 107.762Z" fill="white"/>
<path d="M149.765 76L191.285 112.054H108.245L149.765 76Z" fill="white"/>
<path d="M154.474 189.742V159.912H144.2V189.742H154.474Z" fill="white"/>
<rect width="32.5782" height="32.5782" transform="matrix(1 0 0.707107 0.707107 34.0002 154.663)" stroke="#1E1E1E" stroke-width="3"/>
<rect width="32.5782" height="32.5782" transform="matrix(1 0 0.707107 0.707107 66.5784 154.663)" stroke="#1E1E1E" stroke-width="3"/>
<rect width="32.5782" height="32.5782" transform="matrix(1 0 0.707107 0.707107 99.1565 154.663)" stroke="#1E1E1E" stroke-width="3"/>
<rect width="32.5782" height="32.5782" transform="matrix(1 0 0.707107 0.707107 131.735 154.663)" stroke="#1E1E1E" stroke-width="3"/>
<rect width="32.5782" height="32.5782" transform="matrix(1 0 0.707107 0.707107 164.313 154.663)" stroke="#1E1E1E" stroke-width="3"/>
<rect width="32.5782" height="32.5782" transform="matrix(1 0 0.707107 0.707107 57.0361 177.699)" stroke="#1E1E1E" stroke-width="3"/>
<rect width="32.5782" height="32.5782" transform="matrix(1 0 0.707107 0.707107 89.6145 177.699)" stroke="#1E1E1E" stroke-width="3"/>
<rect width="32.5782" height="32.5782" transform="matrix(1 0 0.707107 0.707107 122.193 177.699)" stroke="#1E1E1E" stroke-width="3"/>
<rect width="32.5782" height="32.5782" transform="matrix(1 0 0.707107 0.707107 154.771 177.699)" stroke="#1E1E1E" stroke-width="3"/>
<rect width="32.5782" height="32.5782" transform="matrix(1 0 0.707107 0.707107 187.349 177.699)" stroke="#1E1E1E" stroke-width="3"/>
<rect width="32.5782" height="32.5782" transform="matrix(1 0 0.707107 0.707107 80.0728 200.735)" stroke="#1E1E1E" stroke-width="3"/>
<rect width="32.5782" height="32.5782" transform="matrix(1 0 0.707107 0.707107 112.651 200.735)" stroke="#1E1E1E" stroke-width="3"/>
<rect width="32.5782" height="32.5782" transform="matrix(1 0 0.707107 0.707107 145.229 200.735)" stroke="#1E1E1E" stroke-width="3"/>
<rect width="32.5782" height="32.5782" transform="matrix(1 0 0.707107 0.707107 177.807 200.735)" stroke="#1E1E1E" stroke-width="3"/>
<rect width="32.5782" height="32.5782" transform="matrix(1 0 0.707107 0.707107 210.385 200.735)" stroke="#1E1E1E" stroke-width="3"/>
<path d="M149.337 128.364L193.452 159.912H154.474H144.2H105.222L149.337 128.364Z" fill="#1E1E1E"/>
<path d="M151.477 107.762L184.1 136.09H118.854L151.477 107.762Z" fill="#1E1E1E"/>
<path d="M149.765 76L191.285 112.054H108.245L149.765 76Z" fill="#1E1E1E"/>
<path d="M154.474 189.742V159.912H144.2V189.742H154.474Z" fill="#1E1E1E"/>
</svg>
