<svg width="300" height="300" viewBox="0 0 300 300" fill="none" xmlns="http://www.w3.org/2000/svg">
<path d="M154.328 67.1716C152.766 65.6095 150.234 65.6095 148.672 67.1716L123.216 92.6274C121.654 94.1895 121.654 96.7222 123.216 98.2843C124.778 99.8464 127.31 99.8464 128.873 98.2843L151.5 75.6569L174.127 98.2843C175.69 99.8464 178.222 99.8464 179.784 98.2843C181.346 96.7222 181.346 94.1895 179.784 92.6274L154.328 67.1716ZM234.828 153.328C236.391 151.766 236.391 149.234 234.828 147.672L209.373 122.216C207.81 120.654 205.278 120.654 203.716 122.216C202.154 123.778 202.154 126.31 203.716 127.873L226.343 150.5L203.716 173.127C202.154 174.69 202.154 177.222 203.716 178.784C205.278 180.346 207.81 180.346 209.373 178.784L234.828 153.328ZM148.672 233.828C150.234 235.391 152.766 235.391 154.328 233.828L179.784 208.373C181.346 206.81 181.346 204.278 179.784 202.716C178.222 201.154 175.69 201.154 174.127 202.716L151.5 225.343L128.873 202.716C127.31 201.154 124.778 201.154 123.216 202.716C121.654 204.278 121.654 206.81 123.216 208.373L148.672 233.828ZM68.1716 147.672C66.6095 149.234 66.6095 151.766 68.1716 153.328L93.6274 178.784C95.1895 180.346 97.7222 180.346 99.2843 178.784C100.846 177.222 100.846 174.69 99.2843 173.127L76.6569 150.5L99.2843 127.873C100.846 126.31 100.846 123.778 99.2843 122.216C97.7222 120.654 95.1895 120.654 93.6274 122.216L68.1716 147.672ZM232 146.5H151.5V154.5H232V146.5ZM155.5 150.5V70H147.5V150.5H155.5ZM147.5 150.5V231H155.5V150.5H147.5ZM151.5 146.5H71V154.5H151.5V146.5Z" fill="white"/>
</svg>
