<svg width="300" height="300" viewBox="0 0 300 300" fill="none" xmlns="http://www.w3.org/2000/svg">
<path d="M222.248 209.353C222.248 206.813 220.978 204.696 219.285 203.002L194.304 174.634H213.781C217.168 174.634 220.132 172.517 221.402 169.553C222.672 166.589 222.248 163.202 220.132 160.662L194.304 131.447H213.781C218.438 131.447 222.248 127.636 222.248 122.979C222.248 120.438 221.402 118.322 219.285 116.628L156.197 53.5403C152.81 50.1532 147.729 50.1532 144.342 53.5403L80.4082 116.627C78.2913 118.744 77.4442 122.555 78.7145 125.519C79.9847 128.483 82.9486 130.6 86.3357 130.6H105.812L79.9847 159.815C77.8678 162.355 77.4442 165.742 78.7145 168.706C79.9847 171.67 82.9486 173.787 86.3357 173.787H105.812L79.9847 203.002C77.8678 205.542 77.4442 208.929 78.7145 211.893C79.9847 214.857 82.9486 216.974 86.3357 216.974H141.802V241.532C141.802 246.189 145.613 250 150.27 250C154.927 250 158.315 246.189 158.738 241.532V216.974H214.204C218.861 216.975 222.672 213.587 222.248 209.353ZM104.966 200.461L130.37 172.094C132.487 169.553 132.91 166.166 131.64 163.202C130.37 160.238 127.406 158.121 124.019 158.121H104.542L130.37 128.906C132.487 126.366 132.91 122.979 131.64 120.015C130.37 117.051 127.406 114.934 124.019 114.934H106.236L150.27 70.8998L193.881 114.511H176.098C172.711 114.511 169.747 116.627 168.476 119.591C167.206 122.555 167.63 125.942 169.747 128.483L195.574 157.698H176.098C172.711 157.698 169.747 159.815 168.476 162.779C167.206 165.743 167.63 169.13 169.747 171.67L195.998 200.461H104.966Z" fill="url(#paint0_linear_13_18)"/>
<defs>
<linearGradient id="paint0_linear_13_18" x1="251" y1="251" x2="74" y2="79" gradientUnits="userSpaceOnUse">
<stop stop-color="#83A4D4"/>
<stop offset="1" stop-color="#B6FBFF"/>
</linearGradient>
</defs>
</svg>
